<svg xmlns="http://www.w3.org/2000/svg" viewBox="0 0 1200 630" width="1200" height="630">
  <defs>
    <linearGradient id="bg" x1="0" y1="0" x2="1" y2="1">
      <stop offset="0" stop-color="#0b0d16"/>
      <stop offset="1" stop-color="#171a2e"/>
    </linearGradient>
    <linearGradient id="brand" x1="0" y1="0" x2="1" y2="1">
      <stop offset="0" stop-color="#818cf8"/>
      <stop offset="0.55" stop-color="#a78bfa"/>
      <stop offset="1" stop-color="#e879f9"/>
    </linearGradient>
  </defs>

  <rect width="1200" height="630" fill="url(#bg)"/>
  <rect x="0" y="0" width="1200" height="6" fill="url(#brand)"/>

  <!-- Brand -->
  <g transform="translate(80,70)">
    <rect width="66" height="66" rx="18" fill="url(#brand)"/>
    <path fill="#0b0d16" d="M28 15l3.5 11.5L43 30l-11.5 3.5L28 45l-3.5-11.5L13 30l11.5-3.5z"/>
    <text x="84" y="44" font-family="Helvetica, Arial, sans-serif" font-size="40" font-weight="700" fill="#e9ebf5" letter-spacing="-1">Neatly</text>
  </g>

  <!-- Eyebrow -->
  <text x="82" y="205" font-family="Helvetica, Arial, sans-serif" font-size="26" font-weight="700" fill="#818cf8" letter-spacing="3">FREE · PRIVATE · NO SIGN-UP</text>

  <!-- Headline -->
  <text x="80" y="300" font-family="Helvetica, Arial, sans-serif" font-size="82" font-weight="800" fill="#e9ebf5" letter-spacing="-3">Developer tools that</text>
  <text x="80" y="392" font-family="Helvetica, Arial, sans-serif" font-size="82" font-weight="800" letter-spacing="-3"><tspan fill="url(#brand)">get the job done</tspan></text>

  <!-- Tool list -->
  <text x="82" y="462" font-family="Helvetica, Arial, sans-serif" font-size="28" font-weight="600" fill="#9aa2bd">Beautify · Minify · JSON · Convert · SQL · Diff · QR · Cron · Hash</text>

  <!-- Chips -->
  <g font-family="Helvetica, Arial, sans-serif" font-size="25" font-weight="700">
    <g transform="translate(80,502)">
      <rect width="180" height="54" rx="27" fill="#1d2130" stroke="#2a2f42"/>
      <text x="90" y="35" fill="#a5b4fc" text-anchor="middle">20+ tools</text>
    </g>
    <g transform="translate(276,502)">
      <rect width="240" height="54" rx="27" fill="#1d2130" stroke="#2a2f42"/>
      <text x="120" y="35" fill="#a5b4fc" text-anchor="middle">Runs in your browser</text>
    </g>
    <g transform="translate(532,502)">
      <rect width="150" height="54" rx="27" fill="#1d2130" stroke="#2a2f42"/>
      <text x="75" y="35" fill="#a5b4fc" text-anchor="middle">5 languages</text>
    </g>
  </g>

  <text x="80" y="600" font-family="Helvetica, Arial, sans-serif" font-size="25" font-weight="600" fill="#6f778f">neatlyapp.vercel.app</text>
</svg>
